<svg width="50" height="50" viewBox="0 0 50 50" fill="none" xmlns="http://www.w3.org/2000/svg">
<g clip-path="url(#clip0)">
<path d="M25.0009 0C11.3112 0 0.173584 10.5259 0.173584 23.4641C0.173584 30.4307 3.41783 36.9921 9.07441 41.4652C9.8032 42.0416 10.8604 41.9179 11.4361 41.1895C12.012 40.4612 11.8887 39.4037 11.1604 38.8278C6.31528 34.9963 3.53619 29.3964 3.53619 23.4643C3.53619 12.38 13.1651 3.36261 25.0009 3.36261C36.8357 3.36261 46.4639 12.38 46.4639 23.4641C46.4639 34.549 36.8357 43.5676 25.0009 43.5676C22.9364 43.5676 20.8942 43.2934 18.9311 42.7527C18.5018 42.6343 18.0432 42.6915 17.656 42.9107L10.6923 46.8555C9.88435 47.3133 9.60033 48.3391 10.0581 49.1472C10.3674 49.6936 10.9364 50.0002 11.5224 50.0002C11.8031 50.0002 12.0878 49.9298 12.3494 49.7814L18.7204 46.1725C20.7631 46.6755 22.8723 46.9302 25.0009 46.9302C38.6898 46.9302 49.8266 36.4034 49.8266 23.4641C49.8266 10.5259 38.6898 0 25.0009 0Z" fill="white"/>
<path d="M25.7062 16.1069C25.1122 15.8314 24.4123 15.9262 23.9124 16.3497L10.9349 27.3468C10.2266 27.9471 10.1389 29.0079 10.7392 29.7163C11.3396 30.4247 12.4006 30.5123 13.1088 29.912L23.3179 21.2609V29.298C23.3179 29.9528 23.6981 30.5482 24.2924 30.8235C24.5183 30.9282 24.7593 30.9793 24.999 30.9793C25.3897 30.9793 25.7764 30.8432 26.0862 30.5807L39.0648 19.5836C39.7731 18.9833 39.8608 17.9225 39.2605 17.2139C38.6601 16.5055 37.5993 16.4176 36.8909 17.018L26.6805 25.6695V17.6324C26.6807 16.9774 26.3005 16.3822 25.7062 16.1069Z" fill="white"/>
</g>
<defs>
<clipPath id="clip0">
<rect width="50" height="50" fill="white"/>
</clipPath>
</defs>
</svg>
