<svg width="50" height="50" viewBox="0 0 50 50" fill="none" xmlns="http://www.w3.org/2000/svg">
<path d="M24.0002 11.3163C25.296 11.3163 26.3465 10.2658 26.3465 8.96998C26.3465 6.61142 28.2655 4.69272 30.6238 4.69272H37.2496C38.5454 4.69272 39.596 3.64218 39.596 2.34636C39.596 1.05054 38.5454 0 37.2496 0H30.6238C25.6777 0 21.6538 4.02385 21.6538 8.96998C21.6538 10.2655 22.7044 11.3163 24.0002 11.3163Z" fill="white"/>
<path d="M36.7465 18.6542H12.7504C11.4546 18.6542 10.4041 19.7047 10.4041 21.0006C10.4041 22.2964 11.4546 23.3469 12.7504 23.3469H21.6541V47.6537C21.6541 48.9495 22.7046 50 24.0004 50C25.2962 50 26.3468 48.9495 26.3468 47.6537V23.3469H36.7468C38.0426 23.3469 39.0932 22.2964 39.0932 21.0006C39.0932 19.7047 38.0423 18.6542 36.7465 18.6542Z" fill="white"/>
</svg>
