<svg width="50" height="50" viewBox="0 0 50 50" fill="none" xmlns="http://www.w3.org/2000/svg">
<path d="M36.2013 0H13.7978C6.1897 0 0 6.19 0 13.7981V36.2016C0 43.81 6.1897 49.9997 13.7978 49.9997H36.2013C43.81 49.9997 49.9997 43.8097 49.9997 36.2016V13.7981C50 6.19 43.81 0 36.2013 0ZM45.5638 36.2016C45.5638 41.3639 41.3639 45.5635 36.2016 45.5635H13.7978C8.63583 45.5638 4.43622 41.3639 4.43622 36.2016V13.7981C4.43622 8.63613 8.63583 4.43622 13.7978 4.43622H36.2013C41.3636 4.43622 45.5635 8.63613 45.5635 13.7981V36.2016H45.5638Z" fill="white"/>
<path d="M24.9999 12.1168C17.8957 12.1168 12.1162 17.8963 12.1162 25.0004C12.1162 32.1043 17.8957 37.8835 24.9999 37.8835C32.104 37.8835 37.8835 32.1043 37.8835 25.0004C37.8835 17.8963 32.104 12.1168 24.9999 12.1168ZM24.9999 33.447C20.3421 33.447 16.5524 29.6579 16.5524 25.0002C16.5524 20.3421 20.3418 16.5527 24.9999 16.5527C29.6579 16.5527 33.4473 20.3421 33.4473 25.0002C33.4473 29.6579 29.6576 33.447 24.9999 33.447Z" fill="white"/>
<path d="M38.4239 8.35516C37.5692 8.35516 36.7295 8.70119 36.1259 9.30747C35.5193 9.9108 35.1707 10.7507 35.1707 11.6084C35.1707 12.4634 35.5196 13.303 36.1259 13.9093C36.7292 14.5126 37.5692 14.8616 38.4239 14.8616C39.2815 14.8616 40.1185 14.5126 40.7248 13.9093C41.3311 13.303 41.6771 12.4631 41.6771 11.6084C41.6771 10.7507 41.3311 9.9108 40.7248 9.30747C40.1215 8.70119 39.2815 8.35516 38.4239 8.35516Z" fill="white"/>
</svg>
