<svg width="50" height="50" viewBox="0 0 50 50" fill="none" xmlns="http://www.w3.org/2000/svg">
<path d="M4.75023 11.7652C3.38966 11.7652 2.28662 12.8682 2.28662 14.2288V47.5364C2.28662 48.8969 3.38966 50 4.75023 50C6.11079 50 7.21383 48.8969 7.21383 47.5364V14.2288C7.21383 12.8679 6.11079 11.7652 4.75023 11.7652Z" fill="white"/>
<path d="M22.3403 37.793C20.9797 37.793 19.8767 38.896 19.8767 40.2566V47.5364C19.8767 48.897 20.9797 50 22.3403 50C23.7009 50 24.8039 48.897 24.8039 47.5364V40.2566C24.8039 38.896 23.7009 37.793 22.3403 37.793Z" fill="white"/>
<path d="M33.7957 14.417C30.37 14.417 27.2317 15.6632 24.8039 17.7231V14.2288C24.8039 12.8682 23.7009 11.7652 22.3403 11.7652C20.9797 11.7652 19.8767 12.8682 19.8767 14.2288V28.3327C19.8767 28.3331 19.8767 28.3334 19.8767 28.3337C19.8767 28.3344 19.8767 28.3347 19.8767 28.3357C19.8767 29.6963 20.9797 30.7993 22.3403 30.7993C23.7009 30.7993 24.8039 29.6963 24.8039 28.3357C24.8039 23.3776 28.8377 19.3442 33.7957 19.3442C38.7535 19.3442 42.7869 23.3776 42.7869 28.3357V47.5364C42.7869 48.8969 43.89 50 45.2505 50C46.6114 50 47.7141 48.8969 47.7141 47.5364V28.3357C47.7141 20.6608 41.4707 14.417 33.7957 14.417Z" fill="white"/>
<path d="M4.74949 4.92721C5.3966 4.92721 6.03385 4.66442 6.49372 4.20784C6.95031 3.74796 7.2131 3.114 7.2131 2.46689C7.2131 1.8165 6.95031 1.18253 6.49372 0.722657C6.03385 0.266069 5.3966 0 4.74949 0C4.10239 0 3.46842 0.266069 3.00855 0.722657C2.54867 1.18253 2.28589 1.8165 2.28589 2.46689C2.28589 3.114 2.54867 3.74796 3.00855 4.20784C3.46842 4.66442 4.10239 4.92721 4.74949 4.92721Z" fill="white"/>
</svg>
