<svg width="50" height="50" viewBox="0 0 50 50" fill="none" xmlns="http://www.w3.org/2000/svg">
<g clip-path="url(#clip0)">
<path d="M40.2512 47.3619C39.8606 47.3619 39.4727 47.2463 39.1399 47.0207L26.568 38.4928L19.8251 43.3447C19.2962 43.725 18.6146 43.8208 18.0005 43.6012C17.3872 43.3811 16.9215 42.8731 16.7552 42.2432L13.3695 29.4124L1.27201 24.7867C0.510429 24.4953 0.0053436 23.7667 -0.00019809 22.9513C-0.00573978 22.1359 0.489318 21.4004 1.24721 21.0988L47.2464 2.79539C47.4551 2.70673 47.676 2.65553 47.8987 2.64181C47.9784 2.63706 48.0584 2.63706 48.1378 2.64155C48.5991 2.66899 49.0522 2.85688 49.4058 3.20363C49.4425 3.23952 49.4773 3.2762 49.5103 3.31447C49.8032 3.64908 49.9642 4.05705 49.9945 4.47268C50.0019 4.57718 50.0014 4.683 49.9921 4.78882C49.9858 4.86429 49.975 4.9395 49.9597 5.01418L42.1953 45.7532C42.0704 46.4077 41.625 46.9555 41.0096 47.2107C40.7655 47.312 40.5077 47.3619 40.2512 47.3619ZM27.6718 34.4585L38.8705 42.0545L44.912 10.355L23.0917 31.3517L27.619 34.4229C27.6372 34.4342 27.6547 34.4463 27.6718 34.4585ZM18.3494 32.7693L19.8488 38.4509L23.0793 36.1263L18.8492 33.2567C18.6526 33.1237 18.4842 32.958 18.3494 32.7693ZM7.42461 22.9009L15.7313 26.0768C16.3264 26.3043 16.7755 26.8046 16.9381 27.4205L17.9915 31.4129C18.0398 30.9524 18.2486 30.5191 18.5877 30.1927L39.3793 10.1862L7.42461 22.9009Z" fill="white"/>
</g>
<defs>
<clipPath id="clip0">
<rect width="50" height="50" fill="white"/>
</clipPath>
</defs>
</svg>
