<svg width="50" height="50" viewBox="0 0 50 50" fill="none" xmlns="http://www.w3.org/2000/svg">
<g clip-path="url(#clip0)">
<path d="M43.9622 5.594C40.0099 1.71917 33.62 -0.158321 24.967 0.0108581C16.2419 0.182461 10.4096 1.71389 6.61258 4.83049C2.9413 7.84356 1.23145 12.2526 1.23145 18.7058V25.2919C1.23145 32.9103 5.31378 41.2858 13.1161 42.5531C14.0168 42.7005 14.8654 42.0881 15.0116 41.1871C15.1579 40.2866 14.5464 39.4378 13.6456 39.2915C7.72855 38.3304 4.53573 31.3613 4.53573 25.2919V18.7058C4.53573 9.45252 7.96448 3.64998 25.0318 3.31426C32.7693 3.16094 38.354 4.72299 41.6486 7.95326C44.216 10.4709 45.4641 13.988 45.4641 18.7058V25.2919C45.4641 35.2652 40.9877 39.664 29.5064 40.9593H21.3651C20.927 40.9593 20.5067 41.1334 20.1969 41.4433L14.4605 47.1798C13.8153 47.825 13.8153 48.8711 14.4605 49.5163C14.783 49.8388 15.2059 50.0003 15.6287 50.0003C16.0514 50.0003 16.4743 49.839 16.7968 49.5163L22.0495 44.2636H29.5987C29.6595 44.2636 29.7206 44.2603 29.7811 44.2535C36.3518 43.5237 40.8514 41.8136 43.9409 38.8715C47.1894 35.7778 48.7687 31.3359 48.7687 25.2917V18.7058C48.7687 13.1328 47.1515 8.72139 43.9622 5.594Z" fill="white"/>
<path d="M26.0313 10.7913C26.0315 10.7913 26.0315 10.7913 26.0319 10.7913C28.6941 10.7913 31.197 11.8282 33.0795 13.7108C34.9623 15.5936 35.9992 18.0969 35.999 20.7595C35.999 21.6719 36.7385 22.4116 37.6509 22.4116C37.6511 22.4116 37.6511 22.4116 37.6511 22.4116C38.5635 22.4116 39.3033 21.6721 39.3033 20.7597C39.3035 17.2144 37.923 13.8813 35.4161 11.3744C32.9095 8.86758 29.577 7.48727 26.0319 7.48727C26.0317 7.48727 26.031 7.48727 26.0308 7.48727C25.1184 7.48727 24.3789 8.22699 24.3789 9.13942C24.3791 10.0516 25.1188 10.7913 26.0313 10.7913Z" fill="white"/>
<path d="M26.0308 16.6012C28.3236 16.6016 30.1892 18.467 30.1894 20.7595C30.1896 21.6719 30.9291 22.4116 31.8417 22.4114C32.7544 22.4114 33.4939 21.6715 33.4937 20.7591C33.493 16.645 30.1455 13.2975 26.0313 13.2969H26.031C25.1186 13.2969 24.3791 14.0364 24.3789 14.9488C24.3789 15.8612 25.1184 16.6012 26.0308 16.6012Z" fill="white"/>
<path d="M18.6226 19.432C17.8695 19.9471 17.6763 20.9752 18.1911 21.7283C18.7059 22.4815 19.7342 22.6744 20.4873 22.1596C21.0797 21.7547 22.467 20.8062 22.3697 18.91C22.308 17.7751 21.2843 16.1546 20.4365 14.9951C19.1962 13.2984 18.1274 12.2765 17.2663 11.9597C16.4623 11.6604 15.6214 11.654 14.7654 11.9412C12.9923 12.5387 11.705 13.6183 11.0428 15.0633C10.398 16.4701 10.4124 18.0868 11.0844 19.7396C12.6718 23.6338 14.8941 27.0431 17.7043 29.8875C20.5338 32.6827 23.943 34.9049 27.8387 36.4932C28.6818 36.8362 29.5158 37.0078 30.3174 37.0078C31.0862 37.0078 31.8252 36.85 32.5138 36.5344C33.9589 35.872 35.0383 34.5848 35.6364 32.8096C35.9228 31.9555 35.9164 31.1151 35.6194 30.3166C35.3005 29.4493 34.2783 28.3807 32.5819 27.1405C31.4221 26.2926 29.8017 25.269 28.6624 25.2071C26.7701 25.1119 25.8224 26.4968 25.4176 27.0892C24.9025 27.8423 25.0953 28.8704 25.8484 29.3857C26.6018 29.9009 27.6297 29.7079 28.1449 28.9548C28.3247 28.692 28.4273 28.5726 28.4861 28.5204C29.4135 28.8175 32.0581 30.7605 32.5341 31.505C32.5458 31.5526 32.5484 31.6251 32.5044 31.757C32.296 32.3758 31.8896 33.1858 31.1373 33.5308C30.4326 33.8533 29.6318 33.6555 29.0851 33.4332C25.5942 32.0099 22.5466 30.0262 20.0406 27.5509C17.5512 25.0311 15.5675 21.9834 14.1451 18.4939C13.9222 17.9458 13.7241 17.1446 14.0468 16.4406C14.3916 15.6883 15.2018 15.2816 15.8186 15.0737C15.9503 15.0296 16.0228 15.0321 16.073 15.0442C16.8178 15.5211 18.7596 18.1641 19.057 19.0917C19.0046 19.1496 18.8854 19.2525 18.6226 19.432Z" fill="white"/>
</g>
<defs>
<clipPath id="clip0">
<rect width="50" height="50" fill="white"/>
</clipPath>
</defs>
</svg>
